<?xml version="1.0" encoding="UTF-8"?>
<svg version="1.1" xmlns="http://www.w3.org/2000/svg" width="164" height="95">
<path d="M0 0 C5.1488151 0.50644083 7.84537811 3.14317684 11.1496582 6.89208984 C12.42997967 8.48561022 13.65974303 10.10639886 14.875 11.75 C15.28298828 12.28882813 15.69097656 12.82765625 16.11132812 13.3828125 C19.0857981 17.32997644 21.93876166 21.35176633 24.8125 25.375 C24.8125 18.445 24.8125 11.515 24.8125 4.375 C22.3375 3.385 22.3375 3.385 19.8125 2.375 C19.8125 1.715 19.8125 1.055 19.8125 0.375 C33.3425 0.375 46.8725 0.375 60.8125 0.375 C61.3075 1.365 61.3075 1.365 61.8125 2.375 C60.1625 3.035 58.5125 3.695 56.8125 4.375 C56.8125 17.245 56.8125 30.115 56.8125 43.375 C58.4625 44.035 60.1125 44.695 61.8125 45.375 C61.8125 45.705 61.8125 46.035 61.8125 46.375 C44.9195615 47.70757403 44.9195615 47.70757403 37.8125 46.375 C40.8125 44.375 40.8125 44.375 42.8125 43.375 C42.8125 30.505 42.8125 17.635 42.8125 4.375 C40.32849398 3.13299699 38.99042364 3.39278349 36.25 3.6875 C35.44433594 3.76613281 34.63867188 3.84476563 33.80859375 3.92578125 C33.14988281 4.07402344 32.49117187 4.22226562 31.8125 4.375 C30.09561866 7.80876268 30.56740998 11.75614365 30.49609375 15.5390625 C30.47531265 16.44627045 30.45453156 17.35347839 30.43312073 18.28817749 C30.36762865 21.1920398 30.30874186 24.09599405 30.25 27 C30.20681445 28.96615542 30.16320015 30.93230147 30.11914062 32.8984375 C30.01194761 37.72386362 29.91067919 42.5493824 29.8125 47.375 C26.45642373 46.6450261 25.11066467 45.99382068 22.96484375 43.26953125 C22.44704346 42.62201904 21.92924316 41.97450684 21.39575195 41.30737305 C20.85265381 40.60781494 20.30955566 39.90825684 19.75 39.1875 C19.18434326 38.47440674 18.61868652 37.76131348 18.03588867 37.02661133 C16.28585825 34.81626542 14.54920745 32.5958208 12.8125 30.375 C11.73802575 29.01740019 10.66254907 27.66059299 9.5859375 26.3046875 C2.29647735 17.10096602 2.29647735 17.10096602 -0.1875 13.375 C-0.3113616 17.43156281 -0.40195733 21.48738978 -0.4621582 25.54541016 C-0.4872593 26.92483702 -0.52134873 28.30413142 -0.56469727 29.68310547 C-0.62552875 31.66835872 -0.65107937 33.65459359 -0.67578125 35.640625 C-0.70196533 36.83461914 -0.72814941 38.02861328 -0.75512695 39.25878906 C-0.40848743 43.09512611 -0.40848743 43.09512611 4.8125 46.375 C-0.4675 46.375 -5.7475 46.375 -11.1875 46.375 C-9.5375 45.055 -7.8875 43.735 -6.1875 42.375 C-5.76450698 39.47070488 -5.64627419 37.17106632 -5.76953125 34.28515625 C-5.78134933 33.50361679 -5.79316742 32.72207733 -5.80534363 31.91685486 C-5.84649701 29.4225863 -5.92130844 26.93084339 -6 24.4375 C-6.06284527 21.9480085 -6.11838305 19.4587512 -6.16252136 16.96885681 C-6.19156657 15.42151508 -6.23214406 13.87433439 -6.2858429 12.32765198 C-6.38090532 8.19906306 -6.09926877 5.06528105 -4.1875 1.375 C-3.1875 0.375 -3.1875 0.375 0 0 Z " fill="#F8FCFC" transform="translate(22.1875,12.625)"/>
<path d="M0 0 C17.58454118 -0.02332838 35.16907754 -0.04097887 52.75363064 -0.05181217 C60.91787164 -0.05697526 69.08210305 -0.0640182 77.24633789 -0.07543945 C84.35971284 -0.0853859 91.47308085 -0.09185333 98.58646256 -0.09408849 C102.35525724 -0.09539567 106.12403203 -0.09848194 109.89282036 -0.10573006 C114.09318816 -0.11374316 118.29352108 -0.11399116 122.49389648 -0.11352539 C123.75265091 -0.11712067 125.01140533 -0.12071594 126.30830383 -0.12442017 C128.01423203 -0.12235817 128.01423203 -0.12235817 129.75462341 -0.12025452 C130.74923804 -0.12117631 131.74385267 -0.1220981 132.76860714 -0.12304783 C135 0 135 0 136 1 C136.125 3.5 136.125 3.5 136 6 C135 7 135 7 132.76860714 7.12304783 C131.27668519 7.12166514 131.27668519 7.12166514 129.75462341 7.12025452 C128.61733795 7.12162918 127.48005249 7.12300385 126.30830383 7.12442017 C124.4201722 7.11902725 124.4201722 7.11902725 122.49389648 7.11352539 C121.17701843 7.11367142 119.86014038 7.11381744 118.50335693 7.1139679 C114.88161732 7.11425587 111.25991054 7.10835924 107.63817859 7.10139394 C103.85718116 7.0951603 100.07618305 7.09455659 96.29518127 7.09336853 C89.1305571 7.09025524 81.9659481 7.08204189 74.80133063 7.07201904 C66.64668838 7.06085782 58.49204543 7.05534743 50.33739746 7.05032361 C33.55825607 7.03985928 16.77912997 7.02225989 0 7 C0 4.69 0 2.38 0 0 Z " fill="#E39643" transform="translate(9,74)"/>
<path d="M0 0 C13.53 0 27.06 0 41 0 C41 3.63 41 7.26 41 11 C40.01 11 39.02 11 38 11 C37.690625 10.071875 37.38125 9.14375 37.0625 8.1875 C34.78032144 4.66049677 34.18946201 4.43707851 30.37109375 3.30078125 C29.55439209 3.05110596 28.73769043 2.80143066 27.89624023 2.54418945 C27.27048096 2.36460693 26.64472168 2.18502441 26 2 C26.11822835 7.2145927 26.24247541 12.428994 26.37231445 17.64331055 C26.41563934 19.41735937 26.45731619 21.19144923 26.49731445 22.96557617 C26.5550762 25.51493705 26.61875362 28.0640918 26.68359375 30.61328125 C26.70030624 31.40712723 26.71701874 32.20097321 26.73423767 33.01887512 C26.82117718 36.24683077 26.97250366 38.91751099 28 42 C30.50447516 43.21869929 30.50447516 43.21869929 33 44 C33 44.33 33 44.66 33 45 C24.75 45 16.5 45 8 45 C11 43 11 43 13 42 C13.33 28.8 13.66 15.6 14 2 C5.25866279 3.87262066 5.25866279 3.87262066 2.9375 8.1875 C2.4734375 9.5796875 2.4734375 9.5796875 2 11 C1.34 11 0.68 11 0 11 C0 7.37 0 3.74 0 0 Z " fill="#F8FDFE" transform="translate(113,14)"/>
<path d="M0 0 C0.91120605 0.01047363 1.82241211 0.02094727 2.76123047 0.03173828 C3.74736328 0.03818359 4.73349609 0.04462891 5.74951172 0.05126953 C7.29832031 0.07640625 7.29832031 0.07640625 8.87841797 0.10205078 C9.91869141 0.11107422 10.95896484 0.12009766 12.03076172 0.12939453 C14.60520889 0.15301331 17.17920009 0.18594929 19.75341797 0.22705078 C20.08341797 0.88705078 20.41341797 1.54705078 20.75341797 2.22705078 C19.10341797 2.88705078 17.45341797 3.54705078 15.75341797 4.22705078 C15.75341797 17.09705078 15.75341797 29.96705078 15.75341797 43.22705078 C17.40341797 43.88705078 19.05341797 44.54705078 20.75341797 45.22705078 C20.75341797 45.55705078 20.75341797 45.88705078 20.75341797 46.22705078 C3.86047947 47.55962481 3.86047947 47.55962481 -3.24658203 46.22705078 C-0.24658203 44.22705078 -0.24658203 44.22705078 1.75341797 43.22705078 C1.75341797 30.35705078 1.75341797 17.48705078 1.75341797 4.22705078 C-0.22658203 3.56705078 -2.20658203 2.90705078 -4.24658203 2.22705078 C-2.24658203 0.22705078 -2.24658203 0.22705078 0 0 Z " fill="#F8BD26" transform="translate(63.24658203125,12.77294921875)"/>
<path d="M0 0 C7.92 0 15.84 0 24 0 C22 2 22 2 19 3 C19 15.87 19 28.74 19 42 C20.65 42.66 22.3 43.32 24 44 C24 44.33 24 44.66 24 45 C16.08 45 8.16 45 0 45 C0.66 44.34 1.32 43.68 2 43 C2.99 43 3.98 43 5 43 C5 29.8 5 16.6 5 3 C2.525 2.01 2.525 2.01 0 1 C0 0.67 0 0.34 0 0 Z " fill="#F6FBFD" transform="translate(86,14)"/>
<path d="M0 0 C13.53 0 27.06 0 41 0 C41 3.63 41 7.26 41 11 C40.01 11 39.02 11 38 11 C37.690625 10.071875 37.38125 9.14375 37.0625 8.1875 C34.59734421 4.37771378 33.00147302 3.79377338 28.83984375 2.4453125 C24.5667243 1.77524975 20.31611342 1.91523695 16 2 C16.00785522 3.70313354 16.00785522 3.70313354 16.01586914 5.44067383 C16.03396038 9.65062676 16.04544714 13.86057624 16.05493164 18.07055664 C16.0599624 19.89315366 16.06678769 21.71574665 16.07543945 23.53833008 C16.08755997 26.15707394 16.09324086 28.77576447 16.09765625 31.39453125 C16.10281754 32.21025101 16.10797882 33.02597076 16.11329651 33.8664093 C16.1136246 37.17013929 16.05225621 39.84323138 15 43 C14.34 42.67 13.68 42.34 13 42 C13.33 28.8 13.66 15.6 14 2 C5.25866279 3.87262066 5.25866279 3.87262066 2.9375 8.1875 C2.4734375 9.5796875 2.4734375 9.5796875 2 11 C1.34 11 0.68 11 0 11 C0 7.37 0 3.74 0 0 Z " fill="#E5F5FD" transform="translate(113,14)"/>
<path d="M0 0 C0.66 0 1.32 0 2 0 C2 1.98 2 3.96 2 6 C2.78375 6.061875 3.5675 6.12375 4.375 6.1875 C5.674375 6.5896875 5.674375 6.5896875 7 7 C8.3125 9.5625 8.3125 9.5625 9 12 C7.68 10.68 6.36 9.36 5 8 C4.8761384 12.05656281 4.78554267 16.11238978 4.7253418 20.17041016 C4.7002407 21.54983702 4.66615127 22.92913142 4.62280273 24.30810547 C4.56197125 26.29335872 4.53642063 28.27959359 4.51171875 30.265625 C4.48553467 31.45961914 4.45935059 32.65361328 4.43237305 33.88378906 C4.77901257 37.72012611 4.77901257 37.72012611 10 41 C4.72 41 -0.56 41 -6 41 C-4.35 39.68 -2.7 38.36 -1 37 C-0.56558786 34.05310951 -0.43579047 31.70049694 -0.546875 28.76953125 C-0.55632141 27.9785051 -0.56576782 27.18747894 -0.57550049 26.3724823 C-0.61004584 23.85143438 -0.67885113 21.33275659 -0.75 18.8125 C-0.79988859 16.28185318 -0.84280179 13.75122169 -0.88165283 11.22038269 C-0.90815704 9.64658958 -0.94243393 8.0729053 -0.98504639 6.49946594 C-1.02703102 4.6667847 -1.01867618 2.83306695 -1 1 C-0.67 0.67 -0.34 0.34 0 0 Z " fill="#DAEEFC" transform="translate(17,18)"/>
<path d="M0 0 C0.91120605 0.01047363 1.82241211 0.02094727 2.76123047 0.03173828 C3.74736328 0.03818359 4.73349609 0.04462891 5.74951172 0.05126953 C7.29832031 0.07640625 7.29832031 0.07640625 8.87841797 0.10205078 C9.91869141 0.11107422 10.95896484 0.12009766 12.03076172 0.12939453 C14.60520889 0.15301331 17.17920009 0.18594929 19.75341797 0.22705078 C20.08341797 0.88705078 20.41341797 1.54705078 20.75341797 2.22705078 C19.10341797 2.88705078 17.45341797 3.54705078 15.75341797 4.22705078 C15.75341797 17.09705078 15.75341797 29.96705078 15.75341797 43.22705078 C17.40341797 43.88705078 19.05341797 44.54705078 20.75341797 45.22705078 C20.75341797 45.55705078 20.75341797 45.88705078 20.75341797 46.22705078 C3.86047947 47.55962481 3.86047947 47.55962481 -3.24658203 46.22705078 C-0.24658203 44.22705078 -0.24658203 44.22705078 1.75341797 43.22705078 C1.75341797 30.35705078 1.75341797 17.48705078 1.75341797 4.22705078 C-0.22658203 3.56705078 -2.20658203 2.90705078 -4.24658203 2.22705078 C-2.24658203 0.22705078 -2.24658203 0.22705078 0 0 Z M2.75341797 2.22705078 C3.08341797 16.08705078 3.41341797 29.94705078 3.75341797 44.22705078 C5.7537417 45.22721265 7.58467545 45.72101086 9.75341797 46.22705078 C9.75341797 45.56705078 9.75341797 44.90705078 9.75341797 44.22705078 C11.07341797 44.22705078 12.39341797 44.22705078 13.75341797 44.22705078 C14.08341797 30.36705078 14.41341797 16.50705078 14.75341797 2.22705078 C10.79341797 2.22705078 6.83341797 2.22705078 2.75341797 2.22705078 Z " fill="#C5AF57" transform="translate(63.24658203125,12.77294921875)"/>
<path d="M0 0 C5.61 0 11.22 0 17 0 C17 0.66 17 1.32 17 2 C15.7934375 2.433125 15.7934375 2.433125 14.5625 2.875 C11.8673532 3.73262568 11.8673532 3.73262568 11 6 C10.84254174 9.0604194 10.74133123 12.101419 10.68359375 15.1640625 C10.66281265 16.07127045 10.64203156 16.97847839 10.62062073 17.91317749 C10.55512865 20.8170398 10.49624186 23.72099405 10.4375 26.625 C10.39431445 28.59115542 10.35070015 30.55730147 10.30664062 32.5234375 C10.19944761 37.34886362 10.09817919 42.1743824 10 47 C9.01 46.67 8.02 46.34 7 46 C7.66 46 8.32 46 9 46 C8.67 40.39 8.34 34.78 8 29 C7.34 29 6.68 29 6 29 C5.67 20.75 5.34 12.5 5 4 C2.525 3.01 2.525 3.01 0 2 C0 1.34 0 0.68 0 0 Z " fill="#DFEEF8" transform="translate(42,13)"/>
<path d="M0 0 C0.33 0 0.66 0 1 0 C1.01401855 1.01368652 1.01401855 1.01368652 1.02832031 2.04785156 C1.08207301 5.1159711 1.16570992 8.18257387 1.25 11.25 C1.26417969 12.31347656 1.27835938 13.37695312 1.29296875 14.47265625 C1.32519531 15.49746094 1.35742188 16.52226563 1.390625 17.578125 C1.41157227 18.52075195 1.43251953 19.46337891 1.45410156 20.43457031 C2.15001087 23.70497059 3.49502923 24.85606386 6 27 C6.66 27.66 7.32 28.32 8 29 C2.72 29 -2.56 29 -8 29 C-4 26 -4 26 -1 26 C-1.01160156 24.96101563 -1.02320313 23.92203125 -1.03515625 22.8515625 C-1.0941338 15.16973651 -1.02720665 7.63067795 0 0 Z " fill="#EEFCFE" transform="translate(19,30)"/>
<path d="M0 0 C0.99 0.66 1.98 1.32 3 2 C3 1.34 3 0.68 3 0 C7.41062136 -1.0257259 9.92630576 -1.03684712 14 1 C14 1.33 14 1.66 14 2 C-2.8929385 3.33257403 -2.8929385 3.33257403 -10 2 C-5.90698286 -0.7286781 -4.73694271 -1.27088707 0 0 Z " fill="#D6BF5F" transform="translate(70,57)"/>
<path d="M0 0 C0.33 0 0.66 0 1 0 C1 3.63 1 7.26 1 11 C0.01 11 -0.98 11 -2 11 C-3.33333333 8.33333333 -4.66666667 5.66666667 -6 3 C-2.125 4.75 -2.125 4.75 -1 7 C-0.67 4.69 -0.34 2.38 0 0 Z " fill="#E0F8FD" transform="translate(153,14)"/>
<path d="M0 0 C4.69564393 3.31457218 7.72469104 7.36279281 11 12 C10.01 12 9.02 12 8 12 C5.95703125 9.8828125 5.95703125 9.8828125 3.8125 7.125 C3.09707031 6.22007813 2.38164063 5.31515625 1.64453125 4.3828125 C0 2 0 2 0 0 Z " fill="#DFF3FD" transform="translate(39,46)"/>
<path d="M0 0 C2.31 0.66 4.62 1.32 7 2 C7 2.33 7 2.66 7 3 C1.72 3 -3.56 3 -9 3 C-9 2.67 -9 2.34 -9 2 C-6.03 2 -3.06 2 0 2 C0 1.34 0 0.68 0 0 Z " fill="#EAFEFF" transform="translate(103,56)"/>
<path d="M0 0 C3.72450216 2.10515339 5.6795921 3.24267224 7.375 7.25 C7.684375 8.61125 7.684375 8.61125 8 10 C6.33333333 8.33333333 4.66666667 6.66666667 3 5 C2.401875 4.443125 1.80375 3.88625 1.1875 3.3125 C0 2 0 2 0 0 Z " fill="#DCF0FC" transform="translate(27,31)"/>
<path d="M0 0 C1.32 0 2.64 0 4 0 C3.625 1.9375 3.625 1.9375 3 4 C2.01 4.495 2.01 4.495 1 5 C0.34 5.99 -0.32 6.98 -1 8 C-1.125 2.25 -1.125 2.25 0 0 Z " fill="#F5FDFD" transform="translate(115,15)"/>
<path d="M0 0 C3.625 0.375 3.625 0.375 7 1 C6.01 1.495 6.01 1.495 5 2 C4.67 2.66 4.34 3.32 4 4 C2.02 3.34 0.04 2.68 -2 2 C-1.34 1.34 -0.68 0.68 0 0 Z " fill="#B9B272" transform="translate(61,13)"/>
</svg>
